<svg width="1440" height="2032" viewBox="0 0 1440 2032" fill="none" xmlns="http://www.w3.org/2000/svg">
<g opacity="0.2">
<path opacity="0.4" d="M2033.66 1688.84H1727.36C1713.97 1688.8 1701.13 1683.46 1691.66 1673.98C1682.19 1664.51 1676.85 1651.68 1676.81 1638.28V1343.88C1676.76 1330.49 1671.42 1317.65 1661.95 1308.18C1652.48 1298.71 1639.65 1293.37 1626.25 1293.33H1090.98C1077.58 1293.29 1064.75 1287.95 1055.28 1278.48C1045.81 1269 1040.47 1256.17 1040.42 1242.78V978.111C1040.47 964.716 1045.81 951.882 1055.28 942.411C1064.75 932.939 1077.58 927.599 1090.98 927.558H1306.08C1319.47 927.599 1332.31 932.939 1341.78 942.411C1351.25 951.882 1356.59 964.716 1356.63 978.111V1079.22C1356.59 1092.61 1351.25 1105.45 1341.78 1114.92C1332.31 1124.39 1319.47 1129.73 1306.08 1129.77H763.865C750.469 1129.81 737.631 1135.15 728.159 1144.62C718.686 1154.09 713.348 1166.93 713.311 1180.33V1522.31C713.275 1535.7 707.937 1548.54 698.464 1558.01C688.991 1567.49 676.154 1572.82 662.757 1572.86H499.162C485.774 1572.81 472.95 1567.46 463.486 1557.99C454.023 1548.52 448.689 1535.7 448.647 1522.31V1376.59C448.611 1363.2 443.273 1350.36 433.8 1340.89C424.327 1331.41 411.49 1326.08 398.094 1326.04H228.59C215.195 1326.08 202.361 1331.42 192.889 1340.89C183.418 1350.36 178.078 1363.2 178.036 1376.59V1885.11C178 1898.5 172.662 1911.34 163.189 1920.81C153.716 1930.28 140.879 1935.62 127.482 1935.66H-65.8113C-79.2077 1935.62 -92.045 1930.28 -101.518 1920.81C-110.99 1911.34 -116.328 1898.5 -116.365 1885.11V906.741C-116.402 893.345 -121.74 880.508 -131.212 871.035C-140.685 861.562 -153.522 856.224 -166.919 856.188H-345.344" stroke="url(#paint0_linear_912_404)" stroke-width="3" stroke-linecap="round" stroke-linejoin="round"/>
<path opacity="0.4" d="M1401.09 -379V-176.785C1401.13 -163.39 1406.47 -150.556 1415.95 -141.084C1425.42 -131.613 1438.25 -126.273 1451.65 -126.231H1582.49C1595.89 -126.189 1608.72 -120.85 1618.19 -111.378C1627.66 -101.907 1633 -89.0723 1633.05 -75.6775V275.225C1633 288.62 1627.66 301.454 1618.19 310.926C1608.72 320.397 1595.89 325.737 1582.49 325.779H901.503C888.108 325.737 875.274 320.397 865.802 310.926C856.331 301.454 850.991 288.62 850.949 275.225V1.63999C850.991 -11.7548 856.331 -24.5891 865.802 -34.0607C875.274 -43.5323 888.108 -48.8719 901.503 -48.9138H1191.44C1204.84 -48.8719 1217.67 -43.5323 1227.14 -34.0607C1236.62 -24.5891 1241.96 -11.7548 1242 1.63999V733.182C1242.04 746.577 1247.38 759.412 1256.85 768.883C1266.32 778.355 1279.16 783.694 1292.55 783.736H1347.57C1360.96 783.778 1373.79 789.118 1383.27 798.589C1392.74 808.061 1398.08 820.895 1398.12 834.29V1399.3C1398.08 1412.7 1392.74 1425.53 1383.27 1435C1373.79 1444.47 1360.96 1449.81 1347.57 1449.86H1142.38C1128.98 1449.9 1116.15 1455.24 1106.68 1464.71C1097.2 1474.18 1091.86 1487.02 1091.82 1500.41V2000" stroke="url(#paint1_linear_912_404)" stroke-width="3" stroke-linecap="round" stroke-linejoin="round"/>
<path opacity="0.4" d="M-475.344 1116.8H-97.6775C-84.2811 1116.76 -71.4438 1111.42 -61.9711 1101.95C-52.4983 1092.48 -47.1604 1079.64 -47.1238 1066.24V358.491C-47.1604 345.095 -52.4983 332.258 -61.9711 322.785C-71.4438 313.312 -84.2811 307.974 -97.6775 307.937H-267.181C-280.578 307.974 -293.415 313.312 -302.888 322.785C-312.36 332.258 -317.698 345.095 -317.735 358.491V551.785C-317.698 565.181 -312.36 578.019 -302.888 587.491C-293.415 596.964 -280.578 602.302 -267.181 602.339H86.695C100.091 602.302 112.929 596.964 122.401 587.491C131.874 578.019 137.212 565.181 137.249 551.785V-13.2275C137.285 -26.6239 142.623 -39.4612 152.096 -48.9339C161.569 -58.4067 174.406 -63.7446 187.802 -63.7812H392.991C406.388 -63.7446 419.225 -58.4067 428.698 -48.9339C438.17 -39.4612 443.508 -26.6239 443.545 -13.2275V96.8012C443.582 110.198 448.92 123.035 458.392 132.508C467.865 141.98 480.702 147.318 494.099 147.355H999.636C1013.03 147.397 1025.87 152.736 1035.34 162.208C1044.81 171.68 1050.15 184.514 1050.19 197.909V475.954C1050.23 489.349 1055.57 502.183 1065.04 511.655C1074.51 521.127 1087.35 526.466 1100.74 526.508H1903.66" stroke="url(#paint2_linear_912_404)" stroke-width="3" stroke-linecap="round" stroke-linejoin="round"/>
<path opacity="0.4" d="M-254.179 2030V1723.7C-254.142 1710.31 -248.804 1697.47 -239.331 1688C-229.859 1678.52 -217.021 1673.19 -203.625 1673.15H90.7763C104.173 1673.11 117.01 1667.78 126.483 1658.3C135.955 1648.83 141.293 1635.99 141.33 1622.6V1087.32C141.367 1073.92 146.705 1061.09 156.177 1051.61C165.65 1042.14 178.487 1036.8 191.884 1036.77H456.548C469.944 1036.8 482.781 1042.14 492.254 1051.61C501.727 1061.09 507.065 1073.92 507.101 1087.32V1302.42C507.065 1315.82 501.727 1328.66 492.254 1338.13C482.781 1347.6 469.944 1352.94 456.548 1352.98H355.44C342.044 1352.94 329.206 1347.6 319.734 1338.13C310.261 1328.66 304.923 1315.82 304.886 1302.42V760.209C304.85 746.812 299.512 733.975 290.039 724.502C280.566 715.03 267.729 709.692 254.333 709.655H-87.6487C-101.045 709.618 -113.882 704.28 -123.355 694.808C-132.828 685.335 -138.166 672.498 -138.202 659.101V495.505C-138.155 482.116 -132.813 469.289 -123.341 459.824C-113.87 450.36 -101.038 445.028 -87.6487 444.991H58.065C71.4614 444.955 84.2987 439.617 93.7714 430.144C103.244 420.671 108.582 407.834 108.619 394.437V224.934C108.582 211.537 103.244 198.7 93.7714 189.227C84.2987 179.755 71.4614 174.417 58.065 174.38H-450.446C-463.843 174.343 -476.68 169.005 -486.153 159.533C-495.625 150.06 -500.963 137.223 -501 123.826V-69.4675C-500.963 -82.8639 -495.625 -95.7012 -486.153 -105.174C-476.68 -114.647 -463.843 -119.985 -450.446 -120.021H527.918C541.314 -120.058 554.151 -125.396 563.624 -134.869C573.097 -144.341 578.435 -157.179 578.471 -170.575V-349" stroke="url(#paint3_linear_912_404)" stroke-width="3" stroke-linecap="round" stroke-linejoin="round"/>
</g>
<g filter="url(#filter0_f_912_404)">
<circle cx="808.5" cy="558.5" r="193.5" fill="#1491B9" fill-opacity="0.32"/>
</g>
<g filter="url(#filter1_f_912_404)">
<circle cx="1304.5" cy="271.5" r="271.5" fill="#30D0AD" fill-opacity="0.25"/>
</g>
<defs>
<filter id="filter0_f_912_404" x="121" y="-129" width="1375" height="1375" filterUnits="userSpaceOnUse" color-interpolation-filters="sRGB">
<feFlood flood-opacity="0" result="BackgroundImageFix"/>
<feBlend mode="normal" in="SourceGraphic" in2="BackgroundImageFix" result="shape"/>
<feGaussianBlur stdDeviation="247" result="effect1_foregroundBlur_912_404"/>
</filter>
<filter id="filter1_f_912_404" x="539" y="-494" width="1531" height="1531" filterUnits="userSpaceOnUse" color-interpolation-filters="sRGB">
<feFlood flood-opacity="0" result="BackgroundImageFix"/>
<feBlend mode="normal" in="SourceGraphic" in2="BackgroundImageFix" result="shape"/>
<feGaussianBlur stdDeviation="247" result="effect1_foregroundBlur_912_404"/>
</filter>
<linearGradient id="paint0_linear_912_404" x1="844.156" y1="856.187" x2="844.156" y2="1935.66" gradientUnits="userSpaceOnUse">
<stop/>
<stop offset="1" stop-color="#CACACA" stop-opacity="0"/>
</linearGradient>
<linearGradient id="paint1_linear_912_404" x1="1242" y1="-379" x2="1242" y2="2000" gradientUnits="userSpaceOnUse">
<stop/>
<stop offset="1" stop-color="white" stop-opacity="0"/>
</linearGradient>
<linearGradient id="paint2_linear_912_404" x1="714.156" y1="-63.7813" x2="714.156" y2="1116.8" gradientUnits="userSpaceOnUse">
<stop/>
<stop offset="1" stop-color="#CACACA" stop-opacity="0"/>
</linearGradient>
<linearGradient id="paint3_linear_912_404" x1="181.656" y1="367.271" x2="311.156" y2="1829.77" gradientUnits="userSpaceOnUse">
<stop/>
<stop offset="0.798618" stop-color="white" stop-opacity="0"/>
</linearGradient>
</defs>
</svg>
